# Wavefront OBJ file automatically generated by Tiled2Unity

# Vertices (Count = 444)
v -31 -1 0
v -32 -1 0
v -32 0 0
v -31 0 0
v -30 -1 0
v -30 0 0
v -29 -1 0
v -29 0 0
v -28 -1 0
v -28 0 0
v -27 -1 0
v -27 0 0
v -26 -1 0
v -26 0 0
v -25 -1 0
v -25 0 0
v -24 -1 0
v -24 0 0
v -23 -1 0
v -23 0 0
v -22 -1 0
v -22 0 0
v -21 -1 0
v -21 0 0
v -20 -1 0
v -20 0 0
v -19 -1 0
v -19 0 0
v -18 -1 0
v -18 0 0
v -17 -1 0
v -17 0 0
v -16 -1 0
v -16 0 0
v -15 -1 0
v -15 0 0
v -14 -1 0
v -14 0 0
v -13 -1 0
v -13 0 0
v -12 -1 0
v -12 0 0
v -11 -1 0
v -11 0 0
v -10 -1 0
v -10 0 0
v -9 -1 0
v -9 0 0
v -8 -1 0
v -8 0 0
v -7 -1 0
v -7 0 0
v -6 -1 0
v -6 0 0
v -5 -1 0
v -5 0 0
v -4 -1 0
v -4 0 0
v -3 -1 0
v -3 0 0
v -2 -1 0
v -2 0 0
v -1 -1 0
v -1 0 0
v 0 -1 0
v 0 0 0
v -31 -2 0
v -32 -2 0
v 0 -2 0
v -1 -2 0
v -31 -3 0
v -32 -3 0
v 0 -3 0
v -1 -3 0
v -31 -4 0
v -32 -4 0
v 0 -4 0
v -1 -4 0
v -31 -5 0
v -32 -5 0
v 0 -5 0
v -1 -5 0
v -31 -6 0
v -32 -6 0
v -30 -6 0
v -30 -5 0
v -29 -6 0
v -29 -5 0
v -28 -6 0
v -28 -5 0
v -27 -6 0
v -27 -5 0
v -26 -6 0
v -26 -5 0
v -25 -6 0
v -25 -5 0
v -24 -6 0
v -24 -5 0
v 0 -6 0
v -1 -6 0
v -31 -7 0
v -32 -7 0
v 0 -7 0
v -1 -7 0
v -31 -8 0
v -32 -8 0
v -17 -8 0
v -18 -8 0
v -18 -7 0
v -17 -7 0
v -16 -8 0
v -16 -7 0
v -15 -8 0
v -15 -7 0
v 0 -8 0
v -1 -8 0
v -31 -9 0
v -32 -9 0
v 0 -9 0
v -1 -9 0
v -31 -10 0
v -32 -10 0
v 0 -10 0
v -1 -10 0
v -31 -11 0
v -32 -11 0
v -10 -11 0
v -11 -11 0
v -11 -10 0
v -10 -10 0
v -9 -11 0
v -9 -10 0
v -8 -11 0
v -8 -10 0
v 0 -11 0
v -1 -11 0
v -31 -12 0
v -32 -12 0
v 0 -12 0
v -1 -12 0
v -31 -13 0
v -32 -13 0
v 0 -13 0
v -1 -13 0
v -31 -14 0
v -32 -14 0
v 0 -14 0
v -1 -14 0
v -31 -15 0
v -32 -15 0
v -4 -15 0
v -5 -15 0
v -5 -14 0
v -4 -14 0
v -3 -15 0
v -3 -14 0
v -2 -15 0
v -2 -14 0
v -1 -15 0
v 0 -15 0
v -31 -16 0
v -32 -16 0
v 0 -16 0
v -1 -16 0
v -31 -17 0
v -32 -17 0
v 0 -17 0
v -1 -17 0
v -31 -18 0
v -32 -18 0
v 0 -18 0
v -1 -18 0
v -31 -19 0
v -32 -19 0
v 0 -19 0
v -1 -19 0
v -31 -20 0
v -32 -20 0
v -7 -20 0
v -8 -20 0
v -8 -19 0
v -7 -19 0
v -6 -20 0
v -6 -19 0
v -5 -20 0
v -5 -19 0
v -4 -20 0
v -4 -19 0
v -3 -20 0
v -3 -19 0
v -2 -20 0
v -2 -19 0
v -1 -20 0
v 0 -20 0
v -31 -21 0
v -32 -21 0
v 0 -21 0
v -1 -21 0
v -31 -22 0
v -32 -22 0
v 0 -22 0
v -1 -22 0
v -31 -23 0
v -32 -23 0
v 0 -23 0
v -1 -23 0
v -31 -24 0
v -32 -24 0
v -18 -24 0
v -19 -24 0
v -19 -23 0
v -18 -23 0
v -17 -24 0
v -17 -23 0
v -16 -24 0
v -16 -23 0
v -15 -24 0
v -15 -23 0
v -14 -24 0
v -14 -23 0
v -13 -24 0
v -13 -23 0
v 0 -24 0
v -1 -24 0
v -31 -25 0
v -32 -25 0
v 0 -25 0
v -1 -25 0
v -31 -26 0
v -32 -26 0
v 0 -26 0
v -1 -26 0
v -31 -27 0
v -32 -27 0
v 0 -27 0
v -1 -27 0
v -31 -28 0
v -32 -28 0
v -30 -28 0
v -30 -27 0
v -29 -28 0
v -29 -27 0
v -28 -28 0
v -28 -27 0
v -27 -28 0
v -27 -27 0
v -26 -28 0
v -26 -27 0
v -25 -28 0
v -25 -27 0
v -24 -28 0
v -24 -27 0
v 0 -28 0
v -1 -28 0
v -31 -29 0
v -32 -29 0
v 0 -29 0
v -1 -29 0
v -31 -30 0
v -32 -30 0
v 0 -30 0
v -1 -30 0
v -31 -31 0
v -32 -31 0
v 0 -31 0
v -1 -31 0
v -31 -32 0
v -32 -32 0
v 0 -32 0
v -1 -32 0
v -31 -33 0
v -32 -33 0
v 0 -33 0
v -1 -33 0
v -31 -34 0
v -32 -34 0
v -23 -34 0
v -24 -34 0
v -24 -33 0
v -23 -33 0
v -22 -34 0
v -22 -33 0
v -21 -34 0
v -21 -33 0
v -10 -34 0
v -11 -34 0
v -11 -33 0
v -10 -33 0
v -9 -34 0
v -9 -33 0
v -8 -34 0
v -8 -33 0
v 0 -34 0
v -1 -34 0
v -31 -35 0
v -32 -35 0
v 0 -35 0
v -1 -35 0
v -31 -36 0
v -32 -36 0
v 0 -36 0
v -1 -36 0
v -31 -37 0
v -32 -37 0
v 0 -37 0
v -1 -37 0
v -31 -38 0
v -32 -38 0
v 0 -38 0
v -1 -38 0
v -31 -39 0
v -32 -39 0
v -18 -39 0
v -19 -39 0
v -19 -38 0
v -18 -38 0
v -17 -39 0
v -17 -38 0
v -16 -39 0
v -16 -38 0
v -15 -39 0
v -15 -38 0
v -14 -39 0
v -14 -38 0
v -13 -39 0
v -13 -38 0
v 0 -39 0
v -1 -39 0
v -31 -40 0
v -32 -40 0
v 0 -40 0
v -1 -40 0
v -31 -41 0
v -32 -41 0
v 0 -41 0
v -1 -41 0
v -31 -42 0
v -32 -42 0
v 0 -42 0
v -1 -42 0
v -31 -43 0
v -32 -43 0
v -30 -43 0
v -30 -42 0
v -29 -43 0
v -29 -42 0
v -28 -43 0
v -28 -42 0
v -27 -43 0
v -27 -42 0
v -26 -43 0
v -26 -42 0
v -25 -43 0
v -25 -42 0
v -24 -43 0
v -24 -42 0
v -7 -43 0
v -8 -43 0
v -8 -42 0
v -7 -42 0
v -6 -43 0
v -6 -42 0
v -5 -43 0
v -5 -42 0
v -4 -43 0
v -4 -42 0
v -3 -43 0
v -3 -42 0
v -2 -43 0
v -2 -42 0
v -1 -43 0
v 0 -43 0
v -31 -44 0
v -32 -44 0
v 0 -44 0
v -1 -44 0
v -31 -45 0
v -32 -45 0
v 0 -45 0
v -1 -45 0
v -31 -46 0
v -32 -46 0
v 0 -46 0
v -1 -46 0
v -31 -47 0
v -32 -47 0
v 0 -47 0
v -1 -47 0
v -31 -48 0
v -32 -48 0
v -30 -48 0
v -30 -47 0
v -29 -48 0
v -29 -47 0
v -28 -48 0
v -28 -47 0
v -27 -48 0
v -27 -47 0
v -26 -48 0
v -26 -47 0
v -25 -48 0
v -25 -47 0
v -24 -48 0
v -24 -47 0
v -23 -48 0
v -23 -47 0
v -22 -48 0
v -22 -47 0
v -21 -48 0
v -21 -47 0
v -20 -48 0
v -20 -47 0
v -19 -48 0
v -19 -47 0
v -18 -48 0
v -18 -47 0
v -13 -48 0
v -14 -48 0
v -14 -47 0
v -13 -47 0
v -12 -48 0
v -12 -47 0
v -11 -48 0
v -11 -47 0
v -10 -48 0
v -10 -47 0
v -9 -48 0
v -9 -47 0
v -8 -48 0
v -8 -47 0
v -7 -48 0
v -7 -47 0
v -6 -48 0
v -6 -47 0
v -5 -48 0
v -5 -47 0
v -4 -48 0
v -4 -47 0
v -3 -48 0
v -3 -47 0
v -2 -48 0
v -2 -47 0
v -1 -48 0
v 0 -48 0

# Texture cooridinates (Count = 16)
vt 0.5010012 0.0001220703
vt 0.7494842 0.0001220703
vt 0.7494842 0.9998779
vt 0.5010012 0.9998779
vt 0.7514867 0.0001220703
vt 0.9999697 0.0001220703
vt 0.9999697 0.9998779
vt 0.7514867 0.9998779
vt 0.2505158 0.0001220703
vt 0.4989988 0.0001220703
vt 0.4989988 0.9998779
vt 0.2505158 0.9998779
vt 3.033981E-05 0.0001220703
vt 0.2485134 0.0001220703
vt 0.2485134 0.9998779
vt 3.033981E-05 0.9998779

# Normal
vn 0 0 -1

# Groups (Count = 1)

g mesh_0001
f 1/1/1 2/2/1 3/3/1 4/4/1
f 5/1/1 1/2/1 4/3/1 6/4/1
f 7/1/1 5/2/1 6/3/1 8/4/1
f 9/1/1 7/2/1 8/3/1 10/4/1
f 11/1/1 9/2/1 10/3/1 12/4/1
f 13/1/1 11/2/1 12/3/1 14/4/1
f 15/1/1 13/2/1 14/3/1 16/4/1
f 17/1/1 15/2/1 16/3/1 18/4/1
f 19/1/1 17/2/1 18/3/1 20/4/1
f 21/1/1 19/2/1 20/3/1 22/4/1
f 23/1/1 21/2/1 22/3/1 24/4/1
f 25/1/1 23/2/1 24/3/1 26/4/1
f 27/1/1 25/2/1 26/3/1 28/4/1
f 29/1/1 27/2/1 28/3/1 30/4/1
f 31/1/1 29/2/1 30/3/1 32/4/1
f 33/1/1 31/2/1 32/3/1 34/4/1
f 35/1/1 33/2/1 34/3/1 36/4/1
f 37/1/1 35/2/1 36/3/1 38/4/1
f 39/1/1 37/2/1 38/3/1 40/4/1
f 41/1/1 39/2/1 40/3/1 42/4/1
f 43/1/1 41/2/1 42/3/1 44/4/1
f 45/1/1 43/2/1 44/3/1 46/4/1
f 47/1/1 45/2/1 46/3/1 48/4/1
f 49/1/1 47/2/1 48/3/1 50/4/1
f 51/1/1 49/2/1 50/3/1 52/4/1
f 53/1/1 51/2/1 52/3/1 54/4/1
f 55/1/1 53/2/1 54/3/1 56/4/1
f 57/1/1 55/2/1 56/3/1 58/4/1
f 59/1/1 57/2/1 58/3/1 60/4/1
f 61/1/1 59/2/1 60/3/1 62/4/1
f 63/1/1 61/2/1 62/3/1 64/4/1
f 65/1/1 63/2/1 64/3/1 66/4/1
f 67/5/1 68/6/1 2/7/1 1/8/1
f 69/9/1 70/10/1 63/11/1 65/12/1
f 71/5/1 72/6/1 68/7/1 67/8/1
f 73/9/1 74/10/1 70/11/1 69/12/1
f 75/5/1 76/6/1 72/7/1 71/8/1
f 77/9/1 78/10/1 74/11/1 73/12/1
f 79/5/1 80/6/1 76/7/1 75/8/1
f 81/9/1 82/10/1 78/11/1 77/12/1
f 83/5/1 84/6/1 80/7/1 79/8/1
f 85/13/1 83/14/1 79/15/1 86/16/1
f 87/13/1 85/14/1 86/15/1 88/16/1
f 89/13/1 87/14/1 88/15/1 90/16/1
f 91/13/1 89/14/1 90/15/1 92/16/1
f 93/13/1 91/14/1 92/15/1 94/16/1
f 95/13/1 93/14/1 94/15/1 96/16/1
f 97/13/1 95/14/1 96/15/1 98/16/1
f 99/9/1 100/10/1 82/11/1 81/12/1
f 101/5/1 102/6/1 84/7/1 83/8/1
f 103/9/1 104/10/1 100/11/1 99/12/1
f 105/5/1 106/6/1 102/7/1 101/8/1
f 107/13/1 108/14/1 109/15/1 110/16/1
f 111/13/1 107/14/1 110/15/1 112/16/1
f 113/13/1 111/14/1 112/15/1 114/16/1
f 115/9/1 116/10/1 104/11/1 103/12/1
f 117/5/1 118/6/1 106/7/1 105/8/1
f 119/9/1 120/10/1 116/11/1 115/12/1
f 121/5/1 122/6/1 118/7/1 117/8/1
f 123/9/1 124/10/1 120/11/1 119/12/1
f 125/5/1 126/6/1 122/7/1 121/8/1
f 127/13/1 128/14/1 129/15/1 130/16/1
f 131/13/1 127/14/1 130/15/1 132/16/1
f 133/13/1 131/14/1 132/15/1 134/16/1
f 135/9/1 136/10/1 124/11/1 123/12/1
f 137/5/1 138/6/1 126/7/1 125/8/1
f 139/9/1 140/10/1 136/11/1 135/12/1
f 141/5/1 142/6/1 138/7/1 137/8/1
f 143/9/1 144/10/1 140/11/1 139/12/1
f 145/5/1 146/6/1 142/7/1 141/8/1
f 147/9/1 148/10/1 144/11/1 143/12/1
f 149/5/1 150/6/1 146/7/1 145/8/1
f 151/13/1 152/14/1 153/15/1 154/16/1
f 155/13/1 151/14/1 154/15/1 156/16/1
f 157/13/1 155/14/1 156/15/1 158/16/1
f 159/13/1 157/14/1 158/15/1 148/16/1
f 160/9/1 159/10/1 148/11/1 147/12/1
f 161/5/1 162/6/1 150/7/1 149/8/1
f 163/9/1 164/10/1 159/11/1 160/12/1
f 165/5/1 166/6/1 162/7/1 161/8/1
f 167/9/1 168/10/1 164/11/1 163/12/1
f 169/5/1 170/6/1 166/7/1 165/8/1
f 171/9/1 172/10/1 168/11/1 167/12/1
f 173/5/1 174/6/1 170/7/1 169/8/1
f 175/9/1 176/10/1 172/11/1 171/12/1
f 177/5/1 178/6/1 174/7/1 173/8/1
f 179/13/1 180/14/1 181/15/1 182/16/1
f 183/13/1 179/14/1 182/15/1 184/16/1
f 185/13/1 183/14/1 184/15/1 186/16/1
f 187/13/1 185/14/1 186/15/1 188/16/1
f 189/13/1 187/14/1 188/15/1 190/16/1
f 191/13/1 189/14/1 190/15/1 192/16/1
f 193/13/1 191/14/1 192/15/1 176/16/1
f 194/9/1 193/10/1 176/11/1 175/12/1
f 195/5/1 196/6/1 178/7/1 177/8/1
f 197/9/1 198/10/1 193/11/1 194/12/1
f 199/5/1 200/6/1 196/7/1 195/8/1
f 201/9/1 202/10/1 198/11/1 197/12/1
f 203/5/1 204/6/1 200/7/1 199/8/1
f 205/9/1 206/10/1 202/11/1 201/12/1
f 207/5/1 208/6/1 204/7/1 203/8/1
f 209/13/1 210/14/1 211/15/1 212/16/1
f 213/13/1 209/14/1 212/15/1 214/16/1
f 215/13/1 213/14/1 214/15/1 216/16/1
f 217/13/1 215/14/1 216/15/1 218/16/1
f 219/13/1 217/14/1 218/15/1 220/16/1
f 221/13/1 219/14/1 220/15/1 222/16/1
f 223/9/1 224/10/1 206/11/1 205/12/1
f 225/5/1 226/6/1 208/7/1 207/8/1
f 227/9/1 228/10/1 224/11/1 223/12/1
f 229/5/1 230/6/1 226/7/1 225/8/1
f 231/9/1 232/10/1 228/11/1 227/12/1
f 233/5/1 234/6/1 230/7/1 229/8/1
f 235/9/1 236/10/1 232/11/1 231/12/1
f 237/5/1 238/6/1 234/7/1 233/8/1
f 239/13/1 237/14/1 233/15/1 240/16/1
f 241/13/1 239/14/1 240/15/1 242/16/1
f 243/13/1 241/14/1 242/15/1 244/16/1
f 245/13/1 243/14/1 244/15/1 246/16/1
f 247/13/1 245/14/1 246/15/1 248/16/1
f 249/13/1 247/14/1 248/15/1 250/16/1
f 251/13/1 249/14/1 250/15/1 252/16/1
f 253/9/1 254/10/1 236/11/1 235/12/1
f 255/5/1 256/6/1 238/7/1 237/8/1
f 257/9/1 258/10/1 254/11/1 253/12/1
f 259/5/1 260/6/1 256/7/1 255/8/1
f 261/9/1 262/10/1 258/11/1 257/12/1
f 263/5/1 264/6/1 260/7/1 259/8/1
f 265/9/1 266/10/1 262/11/1 261/12/1
f 267/5/1 268/6/1 264/7/1 263/8/1
f 269/9/1 270/10/1 266/11/1 265/12/1
f 271/5/1 272/6/1 268/7/1 267/8/1
f 273/9/1 274/10/1 270/11/1 269/12/1
f 275/5/1 276/6/1 272/7/1 271/8/1
f 277/13/1 278/14/1 279/15/1 280/16/1
f 281/13/1 277/14/1 280/15/1 282/16/1
f 283/13/1 281/14/1 282/15/1 284/16/1
f 285/13/1 286/14/1 287/15/1 288/16/1
f 289/13/1 285/14/1 288/15/1 290/16/1
f 291/13/1 289/14/1 290/15/1 292/16/1
f 293/9/1 294/10/1 274/11/1 273/12/1
f 295/5/1 296/6/1 276/7/1 275/8/1
f 297/9/1 298/10/1 294/11/1 293/12/1
f 299/5/1 300/6/1 296/7/1 295/8/1
f 301/9/1 302/10/1 298/11/1 297/12/1
f 303/5/1 304/6/1 300/7/1 299/8/1
f 305/9/1 306/10/1 302/11/1 301/12/1
f 307/5/1 308/6/1 304/7/1 303/8/1
f 309/9/1 310/10/1 306/11/1 305/12/1
f 311/5/1 312/6/1 308/7/1 307/8/1
f 313/13/1 314/14/1 315/15/1 316/16/1
f 317/13/1 313/14/1 316/15/1 318/16/1
f 319/13/1 317/14/1 318/15/1 320/16/1
f 321/13/1 319/14/1 320/15/1 322/16/1
f 323/13/1 321/14/1 322/15/1 324/16/1
f 325/13/1 323/14/1 324/15/1 326/16/1
f 327/9/1 328/10/1 310/11/1 309/12/1
f 329/5/1 330/6/1 312/7/1 311/8/1
f 331/9/1 332/10/1 328/11/1 327/12/1
f 333/5/1 334/6/1 330/7/1 329/8/1
f 335/9/1 336/10/1 332/11/1 331/12/1
f 337/5/1 338/6/1 334/7/1 333/8/1
f 339/9/1 340/10/1 336/11/1 335/12/1
f 341/5/1 342/6/1 338/7/1 337/8/1
f 343/13/1 341/14/1 337/15/1 344/16/1
f 345/13/1 343/14/1 344/15/1 346/16/1
f 347/13/1 345/14/1 346/15/1 348/16/1
f 349/13/1 347/14/1 348/15/1 350/16/1
f 351/13/1 349/14/1 350/15/1 352/16/1
f 353/13/1 351/14/1 352/15/1 354/16/1
f 355/13/1 353/14/1 354/15/1 356/16/1
f 357/13/1 358/14/1 359/15/1 360/16/1
f 361/13/1 357/14/1 360/15/1 362/16/1
f 363/13/1 361/14/1 362/15/1 364/16/1
f 365/13/1 363/14/1 364/15/1 366/16/1
f 367/13/1 365/14/1 366/15/1 368/16/1
f 369/13/1 367/14/1 368/15/1 370/16/1
f 371/13/1 369/14/1 370/15/1 340/16/1
f 372/9/1 371/10/1 340/11/1 339/12/1
f 373/5/1 374/6/1 342/7/1 341/8/1
f 375/9/1 376/10/1 371/11/1 372/12/1
f 377/5/1 378/6/1 374/7/1 373/8/1
f 379/9/1 380/10/1 376/11/1 375/12/1
f 381/5/1 382/6/1 378/7/1 377/8/1
f 383/9/1 384/10/1 380/11/1 379/12/1
f 385/5/1 386/6/1 382/7/1 381/8/1
f 387/9/1 388/10/1 384/11/1 383/12/1
f 389/13/1 390/14/1 386/15/1 385/16/1
f 391/13/1 389/14/1 385/15/1 392/16/1
f 393/13/1 391/14/1 392/15/1 394/16/1
f 395/13/1 393/14/1 394/15/1 396/16/1
f 397/13/1 395/14/1 396/15/1 398/16/1
f 399/13/1 397/14/1 398/15/1 400/16/1
f 401/13/1 399/14/1 400/15/1 402/16/1
f 403/13/1 401/14/1 402/15/1 404/16/1
f 405/13/1 403/14/1 404/15/1 406/16/1
f 407/13/1 405/14/1 406/15/1 408/16/1
f 409/13/1 407/14/1 408/15/1 410/16/1
f 411/13/1 409/14/1 410/15/1 412/16/1
f 413/13/1 411/14/1 412/15/1 414/16/1
f 415/13/1 413/14/1 414/15/1 416/16/1
f 417/13/1 418/14/1 419/15/1 420/16/1
f 421/13/1 417/14/1 420/15/1 422/16/1
f 423/13/1 421/14/1 422/15/1 424/16/1
f 425/13/1 423/14/1 424/15/1 426/16/1
f 427/13/1 425/14/1 426/15/1 428/16/1
f 429/13/1 427/14/1 428/15/1 430/16/1
f 431/13/1 429/14/1 430/15/1 432/16/1
f 433/13/1 431/14/1 432/15/1 434/16/1
f 435/13/1 433/14/1 434/15/1 436/16/1
f 437/13/1 435/14/1 436/15/1 438/16/1
f 439/13/1 437/14/1 438/15/1 440/16/1
f 441/13/1 439/14/1 440/15/1 442/16/1
f 443/13/1 441/14/1 442/15/1 388/16/1
f 444/13/1 443/14/1 388/15/1 387/16/1

