# Wavefront OBJ file automatically generated by Tiled2Unity

# Vertices (Count = 338)
v -31 -1 0
v -32 -1 0
v -32 0 0
v -31 0 0
v -30 -1 0
v -30 0 0
v -29 -1 0
v -29 0 0
v -28 -1 0
v -28 0 0
v -27 -1 0
v -27 0 0
v -26 -1 0
v -26 0 0
v -25 -1 0
v -25 0 0
v -24 -1 0
v -24 0 0
v -23 -1 0
v -23 0 0
v -22 -1 0
v -22 0 0
v -21 -1 0
v -21 0 0
v -20 -1 0
v -20 0 0
v -19 -1 0
v -19 0 0
v -13 -1 0
v -14 -1 0
v -14 0 0
v -13 0 0
v -12 -1 0
v -12 0 0
v -11 -1 0
v -11 0 0
v -10 -1 0
v -10 0 0
v -9 -1 0
v -9 0 0
v -8 -1 0
v -8 0 0
v -7 -1 0
v -7 0 0
v -6 -1 0
v -6 0 0
v -5 -1 0
v -5 0 0
v -4 -1 0
v -4 0 0
v -3 -1 0
v -3 0 0
v -2 -1 0
v -2 0 0
v -1 -1 0
v -1 0 0
v 0 -1 0
v 0 0 0
v -31 -2 0
v -32 -2 0
v 0 -2 0
v -1 -2 0
v -31 -3 0
v -32 -3 0
v 0 -3 0
v -1 -3 0
v -31 -4 0
v -32 -4 0
v 0 -4 0
v -1 -4 0
v -31 -5 0
v -32 -5 0
v 0 -5 0
v -1 -5 0
v -31 -6 0
v -32 -6 0
v 0 -6 0
v -1 -6 0
v -31 -7 0
v -32 -7 0
v -19 -7 0
v -20 -7 0
v -20 -6 0
v -19 -6 0
v -18 -7 0
v -18 -6 0
v -17 -7 0
v -17 -6 0
v -16 -7 0
v -16 -6 0
v -15 -7 0
v -15 -6 0
v -14 -7 0
v -14 -6 0
v -13 -7 0
v -13 -6 0
v 0 -7 0
v -1 -7 0
v -31 -8 0
v -32 -8 0
v 0 -8 0
v -1 -8 0
v -31 -9 0
v -32 -9 0
v 0 -9 0
v -1 -9 0
v -31 -10 0
v -32 -10 0
v 0 -10 0
v -1 -10 0
v -31 -11 0
v -32 -11 0
v 0 -11 0
v -1 -11 0
v -31 -12 0
v -32 -12 0
v -23 -12 0
v -24 -12 0
v -24 -11 0
v -23 -11 0
v -22 -12 0
v -22 -11 0
v -21 -12 0
v -21 -11 0
v -10 -12 0
v -11 -12 0
v -11 -11 0
v -10 -11 0
v -9 -12 0
v -9 -11 0
v -8 -12 0
v -8 -11 0
v 0 -12 0
v -1 -12 0
v -31 -13 0
v -32 -13 0
v 0 -13 0
v -1 -13 0
v -31 -14 0
v -32 -14 0
v 0 -14 0
v -1 -14 0
v -31 -15 0
v -32 -15 0
v 0 -15 0
v -1 -15 0
v -31 -16 0
v -32 -16 0
v -30 -16 0
v -30 -15 0
v -29 -16 0
v -29 -15 0
v -28 -16 0
v -28 -15 0
v -27 -16 0
v -27 -15 0
v -26 -16 0
v -26 -15 0
v -5 -16 0
v -6 -16 0
v -6 -15 0
v -5 -15 0
v -4 -16 0
v -4 -15 0
v -3 -16 0
v -3 -15 0
v -2 -16 0
v -2 -15 0
v -1 -16 0
v 0 -16 0
v -31 -17 0
v -32 -17 0
v 0 -17 0
v -1 -17 0
v -31 -18 0
v -32 -18 0
v 0 -18 0
v -1 -18 0
v -31 -19 0
v -32 -19 0
v 0 -19 0
v -1 -19 0
v -31 -20 0
v -32 -20 0
v 0 -20 0
v -1 -20 0
v -31 -21 0
v -32 -21 0
v 0 -21 0
v -1 -21 0
v -31 -22 0
v -32 -22 0
v -23 -22 0
v -24 -22 0
v -24 -21 0
v -23 -21 0
v -22 -22 0
v -22 -21 0
v -21 -22 0
v -21 -21 0
v -10 -22 0
v -11 -22 0
v -11 -21 0
v -10 -21 0
v -9 -22 0
v -9 -21 0
v -8 -22 0
v -8 -21 0
v 0 -22 0
v -1 -22 0
v -31 -23 0
v -32 -23 0
v 0 -23 0
v -1 -23 0
v -31 -24 0
v -32 -24 0
v 0 -24 0
v -1 -24 0
v -31 -25 0
v -32 -25 0
v 0 -25 0
v -1 -25 0
v -31 -26 0
v -32 -26 0
v 0 -26 0
v -1 -26 0
v -31 -27 0
v -32 -27 0
v -30 -27 0
v -30 -26 0
v -29 -27 0
v -29 -26 0
v -28 -27 0
v -28 -26 0
v -27 -27 0
v -27 -26 0
v -26 -27 0
v -26 -26 0
v -25 -27 0
v -25 -26 0
v -19 -27 0
v -20 -27 0
v -20 -26 0
v -19 -26 0
v -18 -27 0
v -18 -26 0
v -17 -27 0
v -17 -26 0
v -16 -27 0
v -16 -26 0
v -15 -27 0
v -15 -26 0
v -14 -27 0
v -14 -26 0
v -13 -27 0
v -13 -26 0
v -12 -27 0
v -12 -26 0
v -6 -27 0
v -7 -27 0
v -7 -26 0
v -6 -26 0
v -5 -27 0
v -5 -26 0
v -4 -27 0
v -4 -26 0
v -3 -27 0
v -3 -26 0
v -2 -27 0
v -2 -26 0
v -1 -27 0
v 0 -27 0
v -31 -32 0
v -32 -32 0
v -32 -31 0
v -31 -31 0
v -30 -32 0
v -30 -31 0
v -29 -32 0
v -29 -31 0
v -28 -32 0
v -28 -31 0
v -27 -32 0
v -27 -31 0
v -26 -32 0
v -26 -31 0
v -25 -32 0
v -25 -31 0
v -24 -32 0
v -24 -31 0
v -23 -32 0
v -23 -31 0
v -22 -32 0
v -22 -31 0
v -21 -32 0
v -21 -31 0
v -20 -32 0
v -20 -31 0
v -19 -32 0
v -19 -31 0
v -18 -32 0
v -18 -31 0
v -17 -32 0
v -17 -31 0
v -16 -32 0
v -16 -31 0
v -15 -32 0
v -15 -31 0
v -14 -32 0
v -14 -31 0
v -13 -32 0
v -13 -31 0
v -12 -32 0
v -12 -31 0
v -11 -32 0
v -11 -31 0
v -10 -32 0
v -10 -31 0
v -9 -32 0
v -9 -31 0
v -8 -32 0
v -8 -31 0
v -7 -32 0
v -7 -31 0
v -6 -32 0
v -6 -31 0
v -5 -32 0
v -5 -31 0
v -4 -32 0
v -4 -31 0
v -3 -32 0
v -3 -31 0
v -2 -32 0
v -2 -31 0
v -1 -32 0
v -1 -31 0
v 0 -32 0
v 0 -31 0

# Texture cooridinates (Count = 16)
vt 0.5010012 0.0001220703
vt 0.7494842 0.0001220703
vt 0.7494842 0.9998779
vt 0.5010012 0.9998779
vt 0.7514867 0.0001220703
vt 0.9999697 0.0001220703
vt 0.9999697 0.9998779
vt 0.7514867 0.9998779
vt 0.2505158 0.0001220703
vt 0.4989988 0.0001220703
vt 0.4989988 0.9998779
vt 0.2505158 0.9998779
vt 3.033981E-05 0.0001220703
vt 0.2485134 0.0001220703
vt 0.2485134 0.9998779
vt 3.033981E-05 0.9998779

# Normal
vn 0 0 -1

# Groups (Count = 1)

g mesh_0001
f 1/1/1 2/2/1 3/3/1 4/4/1
f 5/1/1 1/2/1 4/3/1 6/4/1
f 7/1/1 5/2/1 6/3/1 8/4/1
f 9/1/1 7/2/1 8/3/1 10/4/1
f 11/1/1 9/2/1 10/3/1 12/4/1
f 13/1/1 11/2/1 12/3/1 14/4/1
f 15/1/1 13/2/1 14/3/1 16/4/1
f 17/1/1 15/2/1 16/3/1 18/4/1
f 19/1/1 17/2/1 18/3/1 20/4/1
f 21/1/1 19/2/1 20/3/1 22/4/1
f 23/1/1 21/2/1 22/3/1 24/4/1
f 25/1/1 23/2/1 24/3/1 26/4/1
f 27/1/1 25/2/1 26/3/1 28/4/1
f 29/1/1 30/2/1 31/3/1 32/4/1
f 33/1/1 29/2/1 32/3/1 34/4/1
f 35/1/1 33/2/1 34/3/1 36/4/1
f 37/1/1 35/2/1 36/3/1 38/4/1
f 39/1/1 37/2/1 38/3/1 40/4/1
f 41/1/1 39/2/1 40/3/1 42/4/1
f 43/1/1 41/2/1 42/3/1 44/4/1
f 45/1/1 43/2/1 44/3/1 46/4/1
f 47/1/1 45/2/1 46/3/1 48/4/1
f 49/1/1 47/2/1 48/3/1 50/4/1
f 51/1/1 49/2/1 50/3/1 52/4/1
f 53/1/1 51/2/1 52/3/1 54/4/1
f 55/1/1 53/2/1 54/3/1 56/4/1
f 57/1/1 55/2/1 56/3/1 58/4/1
f 59/5/1 60/6/1 2/7/1 1/8/1
f 61/9/1 62/10/1 55/11/1 57/12/1
f 63/5/1 64/6/1 60/7/1 59/8/1
f 65/9/1 66/10/1 62/11/1 61/12/1
f 67/5/1 68/6/1 64/7/1 63/8/1
f 69/9/1 70/10/1 66/11/1 65/12/1
f 71/5/1 72/6/1 68/7/1 67/8/1
f 73/9/1 74/10/1 70/11/1 69/12/1
f 75/5/1 76/6/1 72/7/1 71/8/1
f 77/9/1 78/10/1 74/11/1 73/12/1
f 79/5/1 80/6/1 76/7/1 75/8/1
f 81/13/1 82/14/1 83/15/1 84/16/1
f 85/13/1 81/14/1 84/15/1 86/16/1
f 87/13/1 85/14/1 86/15/1 88/16/1
f 89/13/1 87/14/1 88/15/1 90/16/1
f 91/13/1 89/14/1 90/15/1 92/16/1
f 93/13/1 91/14/1 92/15/1 94/16/1
f 95/13/1 93/14/1 94/15/1 96/16/1
f 97/9/1 98/10/1 78/11/1 77/12/1
f 99/5/1 100/6/1 80/7/1 79/8/1
f 101/9/1 102/10/1 98/11/1 97/12/1
f 103/5/1 104/6/1 100/7/1 99/8/1
f 105/9/1 106/10/1 102/11/1 101/12/1
f 107/5/1 108/6/1 104/7/1 103/8/1
f 109/9/1 110/10/1 106/11/1 105/12/1
f 111/5/1 112/6/1 108/7/1 107/8/1
f 113/9/1 114/10/1 110/11/1 109/12/1
f 115/5/1 116/6/1 112/7/1 111/8/1
f 117/13/1 118/14/1 119/15/1 120/16/1
f 121/13/1 117/14/1 120/15/1 122/16/1
f 123/13/1 121/14/1 122/15/1 124/16/1
f 125/13/1 126/14/1 127/15/1 128/16/1
f 129/13/1 125/14/1 128/15/1 130/16/1
f 131/13/1 129/14/1 130/15/1 132/16/1
f 133/9/1 134/10/1 114/11/1 113/12/1
f 135/5/1 136/6/1 116/7/1 115/8/1
f 137/9/1 138/10/1 134/11/1 133/12/1
f 139/5/1 140/6/1 136/7/1 135/8/1
f 141/9/1 142/10/1 138/11/1 137/12/1
f 143/5/1 144/6/1 140/7/1 139/8/1
f 145/9/1 146/10/1 142/11/1 141/12/1
f 147/5/1 148/6/1 144/7/1 143/8/1
f 149/13/1 147/14/1 143/15/1 150/16/1
f 151/13/1 149/14/1 150/15/1 152/16/1
f 153/13/1 151/14/1 152/15/1 154/16/1
f 155/13/1 153/14/1 154/15/1 156/16/1
f 157/13/1 155/14/1 156/15/1 158/16/1
f 159/13/1 160/14/1 161/15/1 162/16/1
f 163/13/1 159/14/1 162/15/1 164/16/1
f 165/13/1 163/14/1 164/15/1 166/16/1
f 167/13/1 165/14/1 166/15/1 168/16/1
f 169/13/1 167/14/1 168/15/1 146/16/1
f 170/9/1 169/10/1 146/11/1 145/12/1
f 171/5/1 172/6/1 148/7/1 147/8/1
f 173/9/1 174/10/1 169/11/1 170/12/1
f 175/5/1 176/6/1 172/7/1 171/8/1
f 177/9/1 178/10/1 174/11/1 173/12/1
f 179/5/1 180/6/1 176/7/1 175/8/1
f 181/9/1 182/10/1 178/11/1 177/12/1
f 183/5/1 184/6/1 180/7/1 179/8/1
f 185/9/1 186/10/1 182/11/1 181/12/1
f 187/5/1 188/6/1 184/7/1 183/8/1
f 189/9/1 190/10/1 186/11/1 185/12/1
f 191/5/1 192/6/1 188/7/1 187/8/1
f 193/13/1 194/14/1 195/15/1 196/16/1
f 197/13/1 193/14/1 196/15/1 198/16/1
f 199/13/1 197/14/1 198/15/1 200/16/1
f 201/13/1 202/14/1 203/15/1 204/16/1
f 205/13/1 201/14/1 204/15/1 206/16/1
f 207/13/1 205/14/1 206/15/1 208/16/1
f 209/9/1 210/10/1 190/11/1 189/12/1
f 211/5/1 212/6/1 192/7/1 191/8/1
f 213/9/1 214/10/1 210/11/1 209/12/1
f 215/5/1 216/6/1 212/7/1 211/8/1
f 217/9/1 218/10/1 214/11/1 213/12/1
f 219/5/1 220/6/1 216/7/1 215/8/1
f 221/9/1 222/10/1 218/11/1 217/12/1
f 223/5/1 224/6/1 220/7/1 219/8/1
f 225/9/1 226/10/1 222/11/1 221/12/1
f 227/5/1 228/6/1 224/7/1 223/8/1
f 229/13/1 227/14/1 223/15/1 230/16/1
f 231/13/1 229/14/1 230/15/1 232/16/1
f 233/13/1 231/14/1 232/15/1 234/16/1
f 235/13/1 233/14/1 234/15/1 236/16/1
f 237/13/1 235/14/1 236/15/1 238/16/1
f 239/13/1 237/14/1 238/15/1 240/16/1
f 241/13/1 242/14/1 243/15/1 244/16/1
f 245/13/1 241/14/1 244/15/1 246/16/1
f 247/13/1 245/14/1 246/15/1 248/16/1
f 249/13/1 247/14/1 248/15/1 250/16/1
f 251/13/1 249/14/1 250/15/1 252/16/1
f 253/13/1 251/14/1 252/15/1 254/16/1
f 255/13/1 253/14/1 254/15/1 256/16/1
f 257/13/1 255/14/1 256/15/1 258/16/1
f 259/13/1 260/14/1 261/15/1 262/16/1
f 263/13/1 259/14/1 262/15/1 264/16/1
f 265/13/1 263/14/1 264/15/1 266/16/1
f 267/13/1 265/14/1 266/15/1 268/16/1
f 269/13/1 267/14/1 268/15/1 270/16/1
f 271/13/1 269/14/1 270/15/1 226/16/1
f 272/9/1 271/10/1 226/11/1 225/12/1
f 273/13/1 274/14/1 275/15/1 276/16/1
f 277/13/1 273/14/1 276/15/1 278/16/1
f 279/13/1 277/14/1 278/15/1 280/16/1
f 281/13/1 279/14/1 280/15/1 282/16/1
f 283/13/1 281/14/1 282/15/1 284/16/1
f 285/13/1 283/14/1 284/15/1 286/16/1
f 287/13/1 285/14/1 286/15/1 288/16/1
f 289/13/1 287/14/1 288/15/1 290/16/1
f 291/13/1 289/14/1 290/15/1 292/16/1
f 293/13/1 291/14/1 292/15/1 294/16/1
f 295/13/1 293/14/1 294/15/1 296/16/1
f 297/13/1 295/14/1 296/15/1 298/16/1
f 299/13/1 297/14/1 298/15/1 300/16/1
f 301/13/1 299/14/1 300/15/1 302/16/1
f 303/13/1 301/14/1 302/15/1 304/16/1
f 305/13/1 303/14/1 304/15/1 306/16/1
f 307/13/1 305/14/1 306/15/1 308/16/1
f 309/13/1 307/14/1 308/15/1 310/16/1
f 311/13/1 309/14/1 310/15/1 312/16/1
f 313/13/1 311/14/1 312/15/1 314/16/1
f 315/13/1 313/14/1 314/15/1 316/16/1
f 317/13/1 315/14/1 316/15/1 318/16/1
f 319/13/1 317/14/1 318/15/1 320/16/1
f 321/13/1 319/14/1 320/15/1 322/16/1
f 323/13/1 321/14/1 322/15/1 324/16/1
f 325/13/1 323/14/1 324/15/1 326/16/1
f 327/13/1 325/14/1 326/15/1 328/16/1
f 329/13/1 327/14/1 328/15/1 330/16/1
f 331/13/1 329/14/1 330/15/1 332/16/1
f 333/13/1 331/14/1 332/15/1 334/16/1
f 335/13/1 333/14/1 334/15/1 336/16/1
f 337/13/1 335/14/1 336/15/1 338/16/1

