# Wavefront OBJ file automatically generated by Tiled2Unity

# Vertices (Count = 280)
v -31 -1 0
v -32 -1 0
v -32 0 0
v -31 0 0
v -30 -1 0
v -30 0 0
v -29 -1 0
v -29 0 0
v -28 -1 0
v -28 0 0
v -27 -1 0
v -27 0 0
v -26 -1 0
v -26 0 0
v -25 -1 0
v -25 0 0
v -24 -1 0
v -24 0 0
v -23 -1 0
v -23 0 0
v -22 -1 0
v -22 0 0
v -21 -1 0
v -21 0 0
v -20 -1 0
v -20 0 0
v -19 -1 0
v -19 0 0
v -18 -1 0
v -18 0 0
v -17 -1 0
v -17 0 0
v -16 -1 0
v -16 0 0
v -15 -1 0
v -15 0 0
v -14 -1 0
v -14 0 0
v -13 -1 0
v -13 0 0
v -12 -1 0
v -12 0 0
v -11 -1 0
v -11 0 0
v -10 -1 0
v -10 0 0
v -9 -1 0
v -9 0 0
v -8 -1 0
v -8 0 0
v -7 -1 0
v -7 0 0
v -6 -1 0
v -6 0 0
v -5 -1 0
v -5 0 0
v -4 -1 0
v -4 0 0
v -3 -1 0
v -3 0 0
v -2 -1 0
v -2 0 0
v -1 -1 0
v -1 0 0
v 0 -1 0
v 0 0 0
v -31 -2 0
v -32 -2 0
v 0 -2 0
v -1 -2 0
v -31 -3 0
v -32 -3 0
v 0 -3 0
v -1 -3 0
v -31 -4 0
v -32 -4 0
v 0 -4 0
v -1 -4 0
v -31 -5 0
v -32 -5 0
v 0 -5 0
v -1 -5 0
v -31 -6 0
v -32 -6 0
v -30 -6 0
v -30 -5 0
v -29 -6 0
v -29 -5 0
v -28 -6 0
v -28 -5 0
v -27 -6 0
v -27 -5 0
v -26 -6 0
v -26 -5 0
v -25 -6 0
v -25 -5 0
v -24 -6 0
v -24 -5 0
v -23 -6 0
v -23 -5 0
v -22 -6 0
v -22 -5 0
v -21 -6 0
v -21 -5 0
v -20 -6 0
v -20 -5 0
v -19 -6 0
v -19 -5 0
v -18 -6 0
v -18 -5 0
v -17 -6 0
v -17 -5 0
v -16 -6 0
v -16 -5 0
v -15 -6 0
v -15 -5 0
v -14 -6 0
v -14 -5 0
v -13 -6 0
v -13 -5 0
v -12 -6 0
v -12 -5 0
v -11 -6 0
v -11 -5 0
v -10 -6 0
v -10 -5 0
v -9 -6 0
v -9 -5 0
v -8 -6 0
v -8 -5 0
v -7 -6 0
v -7 -5 0
v -6 -6 0
v -6 -5 0
v -5 -6 0
v -5 -5 0
v 0 -6 0
v -1 -6 0
v -31 -7 0
v -32 -7 0
v 0 -7 0
v -1 -7 0
v -31 -8 0
v -32 -8 0
v 0 -8 0
v -1 -8 0
v -31 -9 0
v -32 -9 0
v 0 -9 0
v -1 -9 0
v -31 -10 0
v -32 -10 0
v 0 -10 0
v -1 -10 0
v -31 -11 0
v -32 -11 0
v -30 -11 0
v -30 -10 0
v -29 -11 0
v -29 -10 0
v -28 -11 0
v -28 -10 0
v -27 -11 0
v -27 -10 0
v -26 -11 0
v -26 -10 0
v -25 -11 0
v -25 -10 0
v -19 -11 0
v -20 -11 0
v -20 -10 0
v -19 -10 0
v -18 -11 0
v -18 -10 0
v -17 -11 0
v -17 -10 0
v -16 -11 0
v -16 -10 0
v -15 -11 0
v -15 -10 0
v -14 -11 0
v -14 -10 0
v -13 -11 0
v -13 -10 0
v -12 -11 0
v -12 -10 0
v -11 -11 0
v -11 -10 0
v -10 -11 0
v -10 -10 0
v -9 -11 0
v -9 -10 0
v -8 -11 0
v -8 -10 0
v -7 -11 0
v -7 -10 0
v -6 -11 0
v -6 -10 0
v -5 -11 0
v -5 -10 0
v -4 -11 0
v -4 -10 0
v -3 -11 0
v -3 -10 0
v -2 -11 0
v -2 -10 0
v -1 -11 0
v 0 -11 0
v -31 -12 0
v -32 -12 0
v -31 -13 0
v -32 -13 0
v -31 -14 0
v -32 -14 0
v -31 -15 0
v -32 -15 0
v -31 -16 0
v -32 -16 0
v -30 -16 0
v -30 -15 0
v -29 -16 0
v -29 -15 0
v -28 -16 0
v -28 -15 0
v -27 -16 0
v -27 -15 0
v -26 -16 0
v -26 -15 0
v -25 -16 0
v -25 -15 0
v -24 -16 0
v -24 -15 0
v -23 -16 0
v -23 -15 0
v -22 -16 0
v -22 -15 0
v -21 -16 0
v -21 -15 0
v -20 -16 0
v -20 -15 0
v -19 -16 0
v -19 -15 0
v -18 -16 0
v -18 -15 0
v -17 -16 0
v -17 -15 0
v -16 -16 0
v -16 -15 0
v -15 -16 0
v -15 -15 0
v -14 -16 0
v -14 -15 0
v -13 -16 0
v -13 -15 0
v -12 -16 0
v -12 -15 0
v -11 -16 0
v -11 -15 0
v -10 -16 0
v -10 -15 0
v -9 -16 0
v -9 -15 0
v -8 -16 0
v -8 -15 0
v -7 -16 0
v -7 -15 0
v -6 -16 0
v -6 -15 0
v -5 -16 0
v -5 -15 0
v -4 -16 0
v -4 -15 0
v -3 -16 0
v -3 -15 0
v -2 -16 0
v -2 -15 0
v -1 -16 0
v -1 -15 0
v 0 -16 0
v 0 -15 0

# Texture cooridinates (Count = 16)
vt 0.5010012 0.0001220703
vt 0.7494842 0.0001220703
vt 0.7494842 0.9998779
vt 0.5010012 0.9998779
vt 0.7514867 0.0001220703
vt 0.9999697 0.0001220703
vt 0.9999697 0.9998779
vt 0.7514867 0.9998779
vt 0.2505158 0.0001220703
vt 0.4989988 0.0001220703
vt 0.4989988 0.9998779
vt 0.2505158 0.9998779
vt 3.033981E-05 0.0001220703
vt 0.2485134 0.0001220703
vt 0.2485134 0.9998779
vt 3.033981E-05 0.9998779

# Normal
vn 0 0 -1

# Groups (Count = 1)

g mesh_0001
f 1/1/1 2/2/1 3/3/1 4/4/1
f 5/1/1 1/2/1 4/3/1 6/4/1
f 7/1/1 5/2/1 6/3/1 8/4/1
f 9/1/1 7/2/1 8/3/1 10/4/1
f 11/1/1 9/2/1 10/3/1 12/4/1
f 13/1/1 11/2/1 12/3/1 14/4/1
f 15/1/1 13/2/1 14/3/1 16/4/1
f 17/1/1 15/2/1 16/3/1 18/4/1
f 19/1/1 17/2/1 18/3/1 20/4/1
f 21/1/1 19/2/1 20/3/1 22/4/1
f 23/1/1 21/2/1 22/3/1 24/4/1
f 25/1/1 23/2/1 24/3/1 26/4/1
f 27/1/1 25/2/1 26/3/1 28/4/1
f 29/1/1 27/2/1 28/3/1 30/4/1
f 31/1/1 29/2/1 30/3/1 32/4/1
f 33/1/1 31/2/1 32/3/1 34/4/1
f 35/1/1 33/2/1 34/3/1 36/4/1
f 37/1/1 35/2/1 36/3/1 38/4/1
f 39/1/1 37/2/1 38/3/1 40/4/1
f 41/1/1 39/2/1 40/3/1 42/4/1
f 43/1/1 41/2/1 42/3/1 44/4/1
f 45/1/1 43/2/1 44/3/1 46/4/1
f 47/1/1 45/2/1 46/3/1 48/4/1
f 49/1/1 47/2/1 48/3/1 50/4/1
f 51/1/1 49/2/1 50/3/1 52/4/1
f 53/1/1 51/2/1 52/3/1 54/4/1
f 55/1/1 53/2/1 54/3/1 56/4/1
f 57/1/1 55/2/1 56/3/1 58/4/1
f 59/1/1 57/2/1 58/3/1 60/4/1
f 61/1/1 59/2/1 60/3/1 62/4/1
f 63/1/1 61/2/1 62/3/1 64/4/1
f 65/1/1 63/2/1 64/3/1 66/4/1
f 67/5/1 68/6/1 2/7/1 1/8/1
f 69/9/1 70/10/1 63/11/1 65/12/1
f 71/5/1 72/6/1 68/7/1 67/8/1
f 73/9/1 74/10/1 70/11/1 69/12/1
f 75/5/1 76/6/1 72/7/1 71/8/1
f 77/9/1 78/10/1 74/11/1 73/12/1
f 79/5/1 80/6/1 76/7/1 75/8/1
f 81/9/1 82/10/1 78/11/1 77/12/1
f 83/5/1 84/6/1 80/7/1 79/8/1
f 85/13/1 83/14/1 79/15/1 86/16/1
f 87/13/1 85/14/1 86/15/1 88/16/1
f 89/13/1 87/14/1 88/15/1 90/16/1
f 91/13/1 89/14/1 90/15/1 92/16/1
f 93/13/1 91/14/1 92/15/1 94/16/1
f 95/13/1 93/14/1 94/15/1 96/16/1
f 97/13/1 95/14/1 96/15/1 98/16/1
f 99/13/1 97/14/1 98/15/1 100/16/1
f 101/13/1 99/14/1 100/15/1 102/16/1
f 103/13/1 101/14/1 102/15/1 104/16/1
f 105/13/1 103/14/1 104/15/1 106/16/1
f 107/13/1 105/14/1 106/15/1 108/16/1
f 109/13/1 107/14/1 108/15/1 110/16/1
f 111/13/1 109/14/1 110/15/1 112/16/1
f 113/13/1 111/14/1 112/15/1 114/16/1
f 115/13/1 113/14/1 114/15/1 116/16/1
f 117/13/1 115/14/1 116/15/1 118/16/1
f 119/13/1 117/14/1 118/15/1 120/16/1
f 121/13/1 119/14/1 120/15/1 122/16/1
f 123/13/1 121/14/1 122/15/1 124/16/1
f 125/13/1 123/14/1 124/15/1 126/16/1
f 127/13/1 125/14/1 126/15/1 128/16/1
f 129/13/1 127/14/1 128/15/1 130/16/1
f 131/13/1 129/14/1 130/15/1 132/16/1
f 133/13/1 131/14/1 132/15/1 134/16/1
f 135/13/1 133/14/1 134/15/1 136/16/1
f 137/9/1 138/10/1 82/11/1 81/12/1
f 139/5/1 140/6/1 84/7/1 83/8/1
f 141/9/1 142/10/1 138/11/1 137/12/1
f 143/5/1 144/6/1 140/7/1 139/8/1
f 145/9/1 146/10/1 142/11/1 141/12/1
f 147/5/1 148/6/1 144/7/1 143/8/1
f 149/9/1 150/10/1 146/11/1 145/12/1
f 151/5/1 152/6/1 148/7/1 147/8/1
f 153/9/1 154/10/1 150/11/1 149/12/1
f 155/5/1 156/6/1 152/7/1 151/8/1
f 157/13/1 155/14/1 151/15/1 158/16/1
f 159/13/1 157/14/1 158/15/1 160/16/1
f 161/13/1 159/14/1 160/15/1 162/16/1
f 163/13/1 161/14/1 162/15/1 164/16/1
f 165/13/1 163/14/1 164/15/1 166/16/1
f 167/13/1 165/14/1 166/15/1 168/16/1
f 169/13/1 170/14/1 171/15/1 172/16/1
f 173/13/1 169/14/1 172/15/1 174/16/1
f 175/13/1 173/14/1 174/15/1 176/16/1
f 177/13/1 175/14/1 176/15/1 178/16/1
f 179/13/1 177/14/1 178/15/1 180/16/1
f 181/13/1 179/14/1 180/15/1 182/16/1
f 183/13/1 181/14/1 182/15/1 184/16/1
f 185/13/1 183/14/1 184/15/1 186/16/1
f 187/13/1 185/14/1 186/15/1 188/16/1
f 189/13/1 187/14/1 188/15/1 190/16/1
f 191/13/1 189/14/1 190/15/1 192/16/1
f 193/13/1 191/14/1 192/15/1 194/16/1
f 195/13/1 193/14/1 194/15/1 196/16/1
f 197/13/1 195/14/1 196/15/1 198/16/1
f 199/13/1 197/14/1 198/15/1 200/16/1
f 201/13/1 199/14/1 200/15/1 202/16/1
f 203/13/1 201/14/1 202/15/1 204/16/1
f 205/13/1 203/14/1 204/15/1 206/16/1
f 207/13/1 205/14/1 206/15/1 154/16/1
f 208/9/1 207/10/1 154/11/1 153/12/1
f 209/5/1 210/6/1 156/7/1 155/8/1
f 211/5/1 212/6/1 210/7/1 209/8/1
f 213/5/1 214/6/1 212/7/1 211/8/1
f 215/5/1 216/6/1 214/7/1 213/8/1
f 217/13/1 218/14/1 216/15/1 215/16/1
f 219/13/1 217/14/1 215/15/1 220/16/1
f 221/13/1 219/14/1 220/15/1 222/16/1
f 223/13/1 221/14/1 222/15/1 224/16/1
f 225/13/1 223/14/1 224/15/1 226/16/1
f 227/13/1 225/14/1 226/15/1 228/16/1
f 229/13/1 227/14/1 228/15/1 230/16/1
f 231/13/1 229/14/1 230/15/1 232/16/1
f 233/13/1 231/14/1 232/15/1 234/16/1
f 235/13/1 233/14/1 234/15/1 236/16/1
f 237/13/1 235/14/1 236/15/1 238/16/1
f 239/13/1 237/14/1 238/15/1 240/16/1
f 241/13/1 239/14/1 240/15/1 242/16/1
f 243/13/1 241/14/1 242/15/1 244/16/1
f 245/13/1 243/14/1 244/15/1 246/16/1
f 247/13/1 245/14/1 246/15/1 248/16/1
f 249/13/1 247/14/1 248/15/1 250/16/1
f 251/13/1 249/14/1 250/15/1 252/16/1
f 253/13/1 251/14/1 252/15/1 254/16/1
f 255/13/1 253/14/1 254/15/1 256/16/1
f 257/13/1 255/14/1 256/15/1 258/16/1
f 259/13/1 257/14/1 258/15/1 260/16/1
f 261/13/1 259/14/1 260/15/1 262/16/1
f 263/13/1 261/14/1 262/15/1 264/16/1
f 265/13/1 263/14/1 264/15/1 266/16/1
f 267/13/1 265/14/1 266/15/1 268/16/1
f 269/13/1 267/14/1 268/15/1 270/16/1
f 271/13/1 269/14/1 270/15/1 272/16/1
f 273/13/1 271/14/1 272/15/1 274/16/1
f 275/13/1 273/14/1 274/15/1 276/16/1
f 277/13/1 275/14/1 276/15/1 278/16/1
f 279/13/1 277/14/1 278/15/1 280/16/1

